<?xml version="1.0" encoding="UTF-8" standalone="no"?>
<svg
   xmlns:dc="http://purl.org/dc/elements/1.1/"
   xmlns:cc="http://creativecommons.org/ns#"
   xmlns:rdf="http://www.w3.org/1999/02/22-rdf-syntax-ns#"
   xmlns:svg="http://www.w3.org/2000/svg"
   xmlns="http://www.w3.org/2000/svg"
   xmlns:sodipodi="http://sodipodi.sourceforge.net/DTD/sodipodi-0.dtd"
   xmlns:inkscape="http://www.inkscape.org/namespaces/inkscape"
   width="100mm"
   height="100mm"
   viewBox="0 0 100 100"
   version="1.1"
   id="svg8"
   inkscape:version="1.0 (4035a4fb49, 2020-05-01)"
   sodipodi:docname="orion.svg">
  <defs
     id="defs2">
    <inkscape:path-effect
       only_selected="false"
       apply_with_weight="true"
       apply_no_weight="true"
       helper_size="0"
       steps="2"
       weight="33.333333"
       lpeversion="1"
       is_visible="true"
       id="path-effect1366"
       effect="bspline" />
    <inkscape:path-effect
       only_selected="false"
       apply_with_weight="true"
       apply_no_weight="true"
       helper_size="0"
       steps="2"
       weight="33.333333"
       lpeversion="1"
       is_visible="true"
       id="path-effect1357"
       effect="bspline" />
    <inkscape:path-effect
       only_selected="false"
       apply_with_weight="true"
       apply_no_weight="true"
       helper_size="0"
       steps="2"
       weight="33.333333"
       lpeversion="1"
       is_visible="true"
       id="path-effect1348"
       effect="bspline" />
    <inkscape:path-effect
       only_selected="false"
       apply_with_weight="true"
       apply_no_weight="true"
       helper_size="0"
       steps="2"
       weight="33.333333"
       lpeversion="1"
       is_visible="true"
       id="path-effect1339"
       effect="bspline" />
    <inkscape:path-effect
       only_selected="false"
       apply_with_weight="true"
       apply_no_weight="true"
       helper_size="0"
       steps="2"
       weight="33.333333"
       lpeversion="1"
       is_visible="true"
       id="path-effect1330"
       effect="bspline" />
    <inkscape:path-effect
       only_selected="false"
       apply_with_weight="true"
       apply_no_weight="true"
       helper_size="0"
       steps="2"
       weight="33.333333"
       lpeversion="1"
       is_visible="true"
       id="path-effect1321"
       effect="bspline" />
    <inkscape:path-effect
       only_selected="false"
       apply_with_weight="true"
       apply_no_weight="true"
       helper_size="0"
       steps="2"
       weight="33.333333"
       lpeversion="1"
       is_visible="true"
       id="path-effect1312"
       effect="bspline" />
    <inkscape:path-effect
       only_selected="false"
       apply_with_weight="true"
       apply_no_weight="true"
       helper_size="0"
       steps="2"
       weight="33.333333"
       lpeversion="1"
       is_visible="true"
       id="path-effect1303"
       effect="bspline" />
    <inkscape:path-effect
       only_selected="false"
       apply_with_weight="true"
       apply_no_weight="true"
       helper_size="0"
       steps="2"
       weight="33.333333"
       lpeversion="1"
       is_visible="true"
       id="path-effect1294"
       effect="bspline" />
    <inkscape:path-effect
       only_selected="false"
       apply_with_weight="true"
       apply_no_weight="true"
       helper_size="0"
       steps="2"
       weight="33.333333"
       lpeversion="1"
       is_visible="true"
       id="path-effect1285"
       effect="bspline" />
    <inkscape:path-effect
       only_selected="false"
       apply_with_weight="true"
       apply_no_weight="true"
       helper_size="0"
       steps="2"
       weight="33.333333"
       lpeversion="1"
       is_visible="true"
       id="path-effect1276"
       effect="bspline" />
    <inkscape:path-effect
       only_selected="false"
       apply_with_weight="true"
       apply_no_weight="true"
       helper_size="0"
       steps="2"
       weight="33.333333"
       lpeversion="1"
       is_visible="true"
       id="path-effect1267"
       effect="bspline" />
    <inkscape:path-effect
       only_selected="false"
       apply_with_weight="true"
       apply_no_weight="true"
       helper_size="0"
       steps="2"
       weight="33.333333"
       lpeversion="1"
       is_visible="true"
       id="path-effect1258"
       effect="bspline" />
    <inkscape:path-effect
       only_selected="false"
       apply_with_weight="true"
       apply_no_weight="true"
       helper_size="0"
       steps="2"
       weight="33.333333"
       lpeversion="1"
       is_visible="true"
       id="path-effect1249"
       effect="bspline" />
    <inkscape:path-effect
       only_selected="false"
       apply_with_weight="true"
       apply_no_weight="true"
       helper_size="0"
       steps="2"
       weight="33.333333"
       lpeversion="1"
       is_visible="true"
       id="path-effect1230"
       effect="bspline" />
    <inkscape:path-effect
       only_selected="false"
       apply_with_weight="true"
       apply_no_weight="true"
       helper_size="0"
       steps="2"
       weight="33.333333"
       lpeversion="1"
       is_visible="true"
       id="path-effect1221"
       effect="bspline" />
    <inkscape:path-effect
       effect="bspline"
       id="path-effect1202"
       is_visible="true"
       lpeversion="1"
       weight="33.333333"
       steps="2"
       helper_size="0"
       apply_no_weight="true"
       apply_with_weight="true"
       only_selected="false" />
  </defs>
  <sodipodi:namedview
     id="base"
     pagecolor="#ffffff"
     bordercolor="#666666"
     borderopacity="1.0"
     inkscape:pageopacity="0.0"
     inkscape:pageshadow="2"
     inkscape:zoom="1.8319656"
     inkscape:cx="293.43229"
     inkscape:cy="299.34244"
     inkscape:document-units="mm"
     inkscape:current-layer="layer1"
     inkscape:document-rotation="0"
     showgrid="false"
     inkscape:window-width="3440"
     inkscape:window-height="1369"
     inkscape:window-x="-8"
     inkscape:window-y="-8"
     inkscape:window-maximized="1" />
  <metadata
     id="metadata5">
    <rdf:RDF>
      <cc:Work
         rdf:about="">
        <dc:format>image/svg+xml</dc:format>
        <dc:type
           rdf:resource="http://purl.org/dc/dcmitype/StillImage" />
        <dc:title />
      </cc:Work>
    </rdf:RDF>
  </metadata>
  <g
     inkscape:label="Taso 1"
     inkscape:groupmode="layer"
     id="layer1">
    <rect
       style="fill:#000000;fill-opacity:1;stroke:#fff0f0;stroke-width:2;stroke-miterlimit:4;stroke-dasharray:none;stroke-opacity:1"
       id="rect1370"
       width="98"
       height="98"
       x="1"
       y="1"
       rx="20.000013"
       ry="20.000015" />
    <path
       id="path1200-6"
       style="fill:none;fill-rule:evenodd;stroke:#f4eded;stroke-width:2.365;stroke-linecap:butt;stroke-linejoin:miter;stroke-miterlimit:4;stroke-dasharray:none;stroke-opacity:1"
       d="m 75.897194,56.853666 c -1.11958,0.81648 -2.239139,1.63286 -3.358678,2.44914 m 5.953648,-15.57001 c -0.929223,4.476614 -1.858627,8.952928 -2.788203,13.428939 m 2.032673,-19.277139 c 0.189099,1.929067 0.378106,3.858037 0.567024,5.786911 m -4.04701,-9.330248 c 1.2101,1.278285 2.420064,2.556562 3.629894,3.834827 m 1.065359,5.430153 c -8.47195,0.844105 -16.943466,1.6877 -25.414543,2.530796 m -4.700356,19.138401 c 4.044023,7.288825 8.087431,14.577446 12.130233,21.865864 m 0.602128,0.091 c -7.851026,1.334326 -15.70167,2.668156 -23.551947,4.001497 m 4.709623,-21.719341 c -1.658884,7.43348 -3.318074,14.866454 -4.977563,22.298931 M 32.053022,43.591792 c 3.577594,8.762476 7.154518,17.524635 10.730781,26.286484 M 53.587742,46.182038 c -1.5767,6.511675 -3.153653,13.022898 -4.730862,19.533677 m -3.279497,-29.61131 c 2.67382,3.475794 5.347309,6.951526 8.02047,10.427206 M 46.123707,36.30602 c -4.766699,2.679144 -9.533266,5.357886 -14.299703,8.036234 m -4.671863,-6.082449 c 1.773439,2.093816 3.546666,4.187607 5.319688,6.281372 M 20.019722,25.387091 c 2.443452,4.389297 4.886532,8.778472 7.329254,13.16753 M 23.439727,23.891436 c -1.230364,0.468502 -2.460661,0.936896 -3.69089,1.405181 M 19.642278,9.2621017 c 0.149308,5.4598163 0.298325,10.9193333 0.447049,16.3785493 M 25.105994,8.0094338 C 24.454836,13.432448 23.803432,18.85512 23.151784,24.277455" />
    <path
       transform="matrix(2.4924519,0,0,2.5540256,-46.888731,-38.339094)"
       inkscape:transform-center-y="5.3634813"
       inkscape:transform-center-x="7.4316806"
       d="m 30.24222,18.320784 0.84482,1.084354 -1.369089,0.123042 -0.770219,1.138555 -0.540092,-1.264058 -1.320841,-0.380689 1.035294,-0.904274 -0.04611,-1.373833 1.179939,0.705187 1.292346,-0.468388 z"
       inkscape:randomized="0"
       inkscape:rounded="0"
       inkscape:flatsided="false"
       sodipodi:arg2="0.40964958"
       sodipodi:arg1="-0.21866895"
       sodipodi:r2="2.1126757"
       sodipodi:r1="1.1197181"
       sodipodi:cy="18.563684"
       sodipodi:cx="29.149166"
       sodipodi:sides="5"
       id="path857-01"
       style="fill:#ffcc00;stroke:#ffed00;stroke-width:0.396346;stroke-opacity:1"
       sodipodi:type="star" />
    <path
       sodipodi:type="star"
       style="fill:#ffcc00;stroke:#ffed00;stroke-width:0.396346;stroke-opacity:1"
       id="path857-01-3"
       sodipodi:sides="5"
       sodipodi:cx="29.149166"
       sodipodi:cy="18.563684"
       sodipodi:r1="1.1197181"
       sodipodi:r2="2.1126757"
       sodipodi:arg1="-0.21866895"
       sodipodi:arg2="0.40964958"
       inkscape:flatsided="false"
       inkscape:rounded="0"
       inkscape:randomized="0"
       d="m 30.24222,18.320784 0.84482,1.084354 -1.369089,0.123042 -0.770219,1.138555 -0.540092,-1.264058 -1.320841,-0.380689 1.035294,-0.904274 -0.04611,-1.373833 1.179939,0.705187 1.292346,-0.468388 z"
       inkscape:transform-center-x="7.4316803"
       inkscape:transform-center-y="5.3634829"
       transform="matrix(2.4924519,0,0,2.5540256,-52.816495,-38.196421)" />
    <path
       sodipodi:type="star"
       style="fill:#ffcc00;stroke:#ffed00;stroke-width:0.396346;stroke-opacity:1"
       id="path857-01-5"
       sodipodi:sides="5"
       sodipodi:cx="29.149166"
       sodipodi:cy="18.563684"
       sodipodi:r1="1.1197181"
       sodipodi:r2="2.1126757"
       sodipodi:arg1="-0.21866895"
       sodipodi:arg2="0.40964958"
       inkscape:flatsided="false"
       inkscape:rounded="0"
       inkscape:randomized="0"
       d="m 30.24222,18.320784 0.84482,1.084354 -1.369089,0.123042 -0.770219,1.138555 -0.540092,-1.264058 -1.320841,-0.380689 1.035294,-0.904274 -0.04611,-1.373833 1.179939,0.705187 1.292346,-0.468388 z"
       inkscape:transform-center-x="7.4316797"
       inkscape:transform-center-y="5.3634833"
       transform="matrix(2.4924519,0,0,2.5540256,-52.152183,-22.522264)" />
    <path
       sodipodi:type="star"
       style="fill:#ffcc00;stroke:#ffed00;stroke-width:0.396346;stroke-opacity:1"
       id="path857-01-1"
       sodipodi:sides="5"
       sodipodi:cx="29.149166"
       sodipodi:cy="18.563684"
       sodipodi:r1="1.1197181"
       sodipodi:r2="2.1126757"
       sodipodi:arg1="-0.21866895"
       sodipodi:arg2="0.40964958"
       inkscape:flatsided="false"
       inkscape:rounded="0"
       inkscape:randomized="0"
       d="m 30.24222,18.320784 0.84482,1.084354 -1.369089,0.123042 -0.770219,1.138555 -0.540092,-1.264058 -1.320841,-0.380689 1.035294,-0.904274 -0.04611,-1.373833 1.179939,0.705187 1.292346,-0.468388 z"
       inkscape:transform-center-x="7.4316809"
       inkscape:transform-center-y="5.3634822"
       transform="matrix(2.4924519,0,0,2.5540256,-48.953644,-24.045459)" />
    <path
       sodipodi:type="star"
       style="fill:#ffcc00;stroke:#ffed00;stroke-width:0.396346;stroke-opacity:1"
       id="path857-01-4"
       sodipodi:sides="5"
       sodipodi:cx="29.149166"
       sodipodi:cy="18.563684"
       sodipodi:r1="1.1197181"
       sodipodi:r2="2.1126757"
       sodipodi:arg1="-0.21866895"
       sodipodi:arg2="0.40964958"
       inkscape:flatsided="false"
       inkscape:rounded="0"
       inkscape:randomized="0"
       d="m 30.24222,18.320784 0.84482,1.084354 -1.369089,0.123042 -0.770219,1.138555 -0.540092,-1.264058 -1.320841,-0.380689 1.035294,-0.904274 -0.04611,-1.373833 1.179939,0.705187 1.292346,-0.468388 z"
       inkscape:transform-center-x="7.4316812"
       inkscape:transform-center-y="5.3634825"
       transform="matrix(2.4924519,0,0,2.5540256,-45.386041,-9.8944957)" />
    <path
       sodipodi:type="star"
       style="fill:#ffcc00;stroke:#ffed00;stroke-width:0.396346;stroke-opacity:1"
       id="path857-01-0"
       sodipodi:sides="5"
       sodipodi:cx="29.149166"
       sodipodi:cy="18.563684"
       sodipodi:r1="1.1197181"
       sodipodi:r2="2.1126757"
       sodipodi:arg1="-0.21866895"
       sodipodi:arg2="0.40964958"
       inkscape:flatsided="false"
       inkscape:rounded="0"
       inkscape:randomized="0"
       d="m 30.24222,18.320784 0.84482,1.084354 -1.369089,0.123042 -0.770219,1.138555 -0.540092,-1.264058 -1.320841,-0.380689 1.035294,-0.904274 -0.04611,-1.373833 1.179939,0.705187 1.292346,-0.468388 z"
       inkscape:transform-center-x="7.4316805"
       inkscape:transform-center-y="5.3634822"
       transform="matrix(2.4924519,0,0,2.5540256,-26.293216,-11.270284)" />
    <path
       sodipodi:type="star"
       style="fill:#ffcc00;stroke:#ffed00;stroke-width:0.396346;stroke-opacity:1"
       id="path857-01-7"
       sodipodi:sides="5"
       sodipodi:cx="29.149166"
       sodipodi:cy="18.563684"
       sodipodi:r1="1.1197181"
       sodipodi:r2="2.1126757"
       sodipodi:arg1="-0.21866895"
       sodipodi:arg2="0.40964958"
       inkscape:flatsided="false"
       inkscape:rounded="0"
       inkscape:randomized="0"
       d="m 30.24222,18.320784 0.84482,1.084354 -1.369089,0.123042 -0.770219,1.138555 -0.540092,-1.264058 -1.320841,-0.380689 1.035294,-0.904274 -0.04611,-1.373833 1.179939,0.705187 1.292346,-0.468388 z"
       inkscape:transform-center-x="7.4316809"
       inkscape:transform-center-y="5.3634822"
       transform="matrix(2.4924519,0,0,2.5540256,-19.108803,-1.5414969)" />
    <path
       sodipodi:type="star"
       style="fill:#ffcc00;stroke:#ffed00;stroke-width:0.396346;stroke-opacity:1"
       id="path857-01-08"
       sodipodi:sides="5"
       sodipodi:cx="29.149166"
       sodipodi:cy="18.563684"
       sodipodi:r1="1.1197181"
       sodipodi:r2="2.1126757"
       sodipodi:arg1="-0.21866895"
       sodipodi:arg2="0.40964958"
       inkscape:flatsided="false"
       inkscape:rounded="0"
       inkscape:randomized="0"
       d="m 30.24222,18.320784 0.84482,1.084354 -1.369089,0.123042 -0.770219,1.138555 -0.540092,-1.264058 -1.320841,-0.380689 1.035294,-0.904274 -0.04611,-1.373833 1.179939,0.705187 1.292346,-0.468388 z"
       inkscape:transform-center-x="7.4316792"
       inkscape:transform-center-y="5.3634822"
       transform="matrix(2.4924519,0,0,2.5540256,-40.071542,-3.7034496)" />
    <path
       sodipodi:type="star"
       style="fill:#ffcc00;stroke:#ffed00;stroke-width:0.396346;stroke-opacity:1"
       id="path857-01-36"
       sodipodi:sides="5"
       sodipodi:cx="29.149166"
       sodipodi:cy="18.563684"
       sodipodi:r1="1.1197181"
       sodipodi:r2="2.1126757"
       sodipodi:arg1="-0.21866895"
       sodipodi:arg2="0.40964958"
       inkscape:flatsided="false"
       inkscape:rounded="0"
       inkscape:randomized="0"
       d="m 30.24222,18.320784 0.84482,1.084354 -1.369089,0.123042 -0.770219,1.138555 -0.540092,-1.264058 -1.320841,-0.380689 1.035294,-0.904274 -0.04611,-1.373833 1.179939,0.705187 1.292346,-0.468388 z"
       inkscape:transform-center-x="7.4316804"
       inkscape:transform-center-y="5.3634809"
       transform="matrix(2.4924519,0,0,2.5540256,1.8539379,-13.432238)" />
    <path
       sodipodi:type="star"
       style="fill:#ffcc00;stroke:#ffed00;stroke-width:0.396346;stroke-opacity:1"
       id="path857-01-47"
       sodipodi:sides="5"
       sodipodi:cx="29.149166"
       sodipodi:cy="18.563684"
       sodipodi:r1="1.1197181"
       sodipodi:r2="2.1126757"
       sodipodi:arg1="-0.21866895"
       sodipodi:arg2="0.40964958"
       inkscape:flatsided="false"
       inkscape:rounded="0"
       inkscape:randomized="0"
       d="m 30.24222,18.320784 0.84482,1.084354 -1.369089,0.123042 -0.770219,1.138555 -0.540092,-1.264058 -1.320841,-0.380689 1.035294,-0.904274 -0.04611,-1.373833 1.179939,0.705187 1.292346,-0.468388 z"
       inkscape:transform-center-x="7.4316804"
       inkscape:transform-center-y="5.3634818"
       transform="matrix(2.4924519,0,0,2.5540256,5.2985198,-9.5996846)" />
    <path
       sodipodi:type="star"
       style="fill:#ffcc00;stroke:#ffed00;stroke-width:0.396346;stroke-opacity:1"
       id="path857-01-6"
       sodipodi:sides="5"
       sodipodi:cx="29.149166"
       sodipodi:cy="18.563684"
       sodipodi:r1="1.1197181"
       sodipodi:r2="2.1126757"
       sodipodi:arg1="-0.21866895"
       sodipodi:arg2="0.40964958"
       inkscape:flatsided="false"
       inkscape:rounded="0"
       inkscape:randomized="0"
       d="m 30.24222,18.320784 0.84482,1.084354 -1.369089,0.123042 -0.770219,1.138555 -0.540092,-1.264058 -1.320841,-0.380689 1.035294,-0.904274 -0.04611,-1.373833 1.179939,0.705187 1.292346,-0.468388 z"
       inkscape:transform-center-x="7.4316803"
       inkscape:transform-center-y="5.3634822"
       transform="matrix(2.4924519,0,0,2.5540256,6.1842686,-3.8017202)" />
    <path
       sodipodi:type="star"
       style="fill:#ffcc00;stroke:#ffed00;stroke-width:0.396346;stroke-opacity:1"
       id="path857-01-03"
       sodipodi:sides="5"
       sodipodi:cx="29.149166"
       sodipodi:cy="18.563684"
       sodipodi:r1="1.1197181"
       sodipodi:r2="2.1126757"
       sodipodi:arg1="-0.21866895"
       sodipodi:arg2="0.40964958"
       inkscape:flatsided="false"
       inkscape:rounded="0"
       inkscape:randomized="0"
       d="m 30.24222,18.320784 0.84482,1.084354 -1.369089,0.123042 -0.770219,1.138555 -0.540092,-1.264058 -1.320841,-0.380689 1.035294,-0.904274 -0.04611,-1.373833 1.179939,0.705187 1.292346,-0.468388 z"
       inkscape:transform-center-x="7.4316802"
       inkscape:transform-center-y="5.3634821"
       transform="matrix(2.4924519,0,0,2.5540256,5.495353,-0.16570933)" />
    <path
       sodipodi:type="star"
       style="fill:#ffcc00;stroke:#ffed00;stroke-width:0.396346;stroke-opacity:1"
       id="path857-01-70"
       sodipodi:sides="5"
       sodipodi:cx="29.149166"
       sodipodi:cy="18.563684"
       sodipodi:r1="1.1197181"
       sodipodi:r2="2.1126757"
       sodipodi:arg1="-0.21866895"
       sodipodi:arg2="0.40964958"
       inkscape:flatsided="false"
       inkscape:rounded="0"
       inkscape:randomized="0"
       d="m 30.24222,18.320784 0.84482,1.084354 -1.369089,0.123042 -0.770219,1.138555 -0.540092,-1.264058 -1.320841,-0.380689 1.035294,-0.904274 -0.04611,-1.373833 1.179939,0.705187 1.292346,-0.468388 z"
       inkscape:transform-center-x="7.4316804"
       inkscape:transform-center-y="5.3634821"
       transform="matrix(2.4924519,0,0,2.5540256,3.4286043,9.5630788)" />
    <path
       sodipodi:type="star"
       style="fill:#ffcc00;stroke:#ffed00;stroke-width:0.396346;stroke-opacity:1"
       id="path857-01-2"
       sodipodi:sides="5"
       sodipodi:cx="29.149166"
       sodipodi:cy="18.563684"
       sodipodi:r1="1.1197181"
       sodipodi:r2="2.1126757"
       sodipodi:arg1="-0.21866895"
       sodipodi:arg2="0.40964958"
       inkscape:flatsided="false"
       inkscape:rounded="0"
       inkscape:randomized="0"
       d="m 30.24222,18.320784 0.84482,1.084354 -1.369089,0.123042 -0.770219,1.138555 -0.540092,-1.264058 -1.320841,-0.380689 1.035294,-0.904274 -0.04611,-1.373833 1.179939,0.705187 1.292346,-0.468388 z"
       inkscape:transform-center-x="7.4316803"
       inkscape:transform-center-y="5.3634816"
       transform="matrix(2.4924519,0,0,2.5540256,0.18085548,11.528489)" />
    <path
       sodipodi:type="star"
       style="fill:#ffcc00;stroke:#ffed00;stroke-width:0.396346;stroke-opacity:1"
       id="path857-01-26"
       sodipodi:sides="5"
       sodipodi:cx="29.149166"
       sodipodi:cy="18.563684"
       sodipodi:r1="1.1197181"
       sodipodi:r2="2.1126757"
       sodipodi:arg1="-0.21866895"
       sodipodi:arg2="0.40964958"
       inkscape:flatsided="false"
       inkscape:rounded="0"
       inkscape:randomized="0"
       d="m 30.24222,18.320784 0.84482,1.084354 -1.369089,0.123042 -0.770219,1.138555 -0.540092,-1.264058 -1.320841,-0.380689 1.035294,-0.904274 -0.04611,-1.373833 1.179939,0.705187 1.292346,-0.468388 z"
       inkscape:transform-center-x="7.4316808"
       inkscape:transform-center-y="5.3634818"
       transform="matrix(2.4924519,0,0,2.5540256,-23.537551,17.424724)" />
    <path
       sodipodi:type="star"
       style="fill:#ffcc00;stroke:#ffed00;stroke-width:0.396346;stroke-opacity:1"
       id="path857-01-24"
       sodipodi:sides="5"
       sodipodi:cx="29.149166"
       sodipodi:cy="18.563684"
       sodipodi:r1="1.1197181"
       sodipodi:r2="2.1126757"
       sodipodi:arg1="-0.21866895"
       sodipodi:arg2="0.40964958"
       inkscape:flatsided="false"
       inkscape:rounded="0"
       inkscape:randomized="0"
       d="m 30.24222,18.320784 0.84482,1.084354 -1.369089,0.123042 -0.770219,1.138555 -0.540092,-1.264058 -1.320841,-0.380689 1.035294,-0.904274 -0.04611,-1.373833 1.179939,0.705187 1.292346,-0.468388 z"
       inkscape:transform-center-x="7.4316805"
       inkscape:transform-center-y="5.3634813"
       transform="matrix(2.4924519,0,0,2.5540256,-26.293216,19.684946)" />
    <path
       sodipodi:type="star"
       style="fill:#ffcc00;stroke:#ffed00;stroke-width:0.396346;stroke-opacity:1"
       id="path857-01-25"
       sodipodi:sides="5"
       sodipodi:cx="29.149166"
       sodipodi:cy="18.563684"
       sodipodi:r1="1.1197181"
       sodipodi:r2="2.1126757"
       sodipodi:arg1="-0.21866895"
       sodipodi:arg2="0.40964958"
       inkscape:flatsided="false"
       inkscape:rounded="0"
       inkscape:randomized="0"
       d="m 30.24222,18.320784 0.84482,1.084354 -1.369089,0.123042 -0.770219,1.138555 -0.540092,-1.264058 -1.320841,-0.380689 1.035294,-0.904274 -0.04611,-1.373833 1.179939,0.705187 1.292346,-0.468388 z"
       inkscape:transform-center-x="7.43168"
       inkscape:transform-center-y="5.3634827"
       transform="matrix(2.4924519,0,0,2.5540256,-29.737797,21.8469)" />
    <path
       sodipodi:type="star"
       style="fill:#ffcc00;stroke:#ffed00;stroke-width:0.396346;stroke-opacity:1"
       id="path857-01-62"
       sodipodi:sides="5"
       sodipodi:cx="29.149166"
       sodipodi:cy="18.563684"
       sodipodi:r1="1.1197181"
       sodipodi:r2="2.1126757"
       sodipodi:arg1="-0.21866895"
       sodipodi:arg2="0.40964958"
       inkscape:flatsided="false"
       inkscape:rounded="0"
       inkscape:randomized="0"
       d="m 30.24222,18.320784 0.84482,1.084354 -1.369089,0.123042 -0.770219,1.138555 -0.540092,-1.264058 -1.320841,-0.380689 1.035294,-0.904274 -0.04611,-1.373833 1.179939,0.705187 1.292346,-0.468388 z"
       inkscape:transform-center-x="7.4316806"
       inkscape:transform-center-y="5.3634827"
       transform="matrix(2.4924519,0,0,2.5540256,-34.264962,43.662969)" />
    <path
       sodipodi:type="star"
       style="fill:#ffcc00;stroke:#ffed00;stroke-width:0.396346;stroke-opacity:1"
       id="path857-01-45"
       sodipodi:sides="5"
       sodipodi:cx="29.149166"
       sodipodi:cy="18.563684"
       sodipodi:r1="1.1197181"
       sodipodi:r2="2.1126757"
       sodipodi:arg1="-0.21866895"
       sodipodi:arg2="0.40964958"
       inkscape:flatsided="false"
       inkscape:rounded="0"
       inkscape:randomized="0"
       d="m 30.24222,18.320784 0.84482,1.084354 -1.369089,0.123042 -0.770219,1.138555 -0.540092,-1.264058 -1.320841,-0.380689 1.035294,-0.904274 -0.04611,-1.373833 1.179939,0.705187 1.292346,-0.468388 z"
       inkscape:transform-center-x="7.4316799"
       inkscape:transform-center-y="5.3634828"
       transform="matrix(2.4924519,0,0,2.5540256,-11.235472,39.437334)" />
  </g>
</svg>
