<?xml version="1.0" encoding="UTF-8" standalone="no"?>
<svg
   xmlns:dc="http://purl.org/dc/elements/1.1/"
   xmlns:cc="http://creativecommons.org/ns#"
   xmlns:rdf="http://www.w3.org/1999/02/22-rdf-syntax-ns#"
   xmlns:svg="http://www.w3.org/2000/svg"
   xmlns="http://www.w3.org/2000/svg"
   xmlns:sodipodi="http://sodipodi.sourceforge.net/DTD/sodipodi-0.dtd"
   xmlns:inkscape="http://www.inkscape.org/namespaces/inkscape"
   width="200mm"
   height="200mm"
   viewBox="0 0 210 297"
   version="1.1"
   id="svg8"
   inkscape:version="1.0 (4035a4fb49, 2020-05-01)"
   sodipodi:docname="minor_planet_eris1.svg">
  <metadata
     id="metadata9">
    <rdf:RDF>
      <cc:Work
         rdf:about="">
        <dc:format>image/svg+xml</dc:format>
        <dc:type
           rdf:resource="http://purl.org/dc/dcmitype/StillImage" />
        <dc:title></dc:title>
      </cc:Work>
    </rdf:RDF>
  </metadata>
  <defs
     id="defs2" />
  <sodipodi:namedview
     id="base"
     pagecolor="#ffffff"
     bordercolor="#666666"
     borderopacity="1.0"
     inkscape:pageopacity="0.0"
     inkscape:pageshadow="2"
     inkscape:zoom="0.64174174"
     inkscape:cx="422.15433"
     inkscape:cy="691.96843"
     inkscape:document-units="mm"
     inkscape:current-layer="layer1"
     inkscape:document-rotation="0"
     showgrid="false"
     inkscape:window-width="1372"
     inkscape:window-height="1198"
     inkscape:window-x="1389"
     inkscape:window-y="90"
     inkscape:window-maximized="0" />
  <g
     inkscape:label="Taso 1"
     inkscape:groupmode="layer"
     id="layer1">
    <circle
       style="fill:#000000;stroke:#231f20;stroke-width:0.0529167"
       id="path833"
       cx="105"
       cy="148.5"
       r="148.47354" />
    <path
       id="path889"
       d="m 106.68497,28.391732 a 9.7316727,9.7316727 0 0 0 -9.731679,9.731673 V 94.311864 C 79.113441,71.352874 50.73952,56.44632 18.914186,56.44632 a 9.7316727,9.7316727 0 0 0 -9.7316708,9.731673 9.7316727,9.7316727 0 0 0 9.7316708,9.731673 c 43.409749,0 78.039105,33.456634 78.039105,74.433174 0,40.97654 -34.629356,74.43318 -78.039105,74.43318 a 9.7316727,9.7316727 0 0 0 -9.7316708,9.73167 9.7316727,9.7316727 0 0 0 9.7316708,9.73168 c 31.825334,0 60.199255,-14.90656 78.039105,-37.86555 v 56.18846 a 9.7316727,9.7316727 0 0 0 9.731679,9.73167 9.7316727,9.7316727 0 0 0 9.73167,-9.73167 v -56.18955 c 17.83981,22.95953 46.21443,37.86664 78.04019,37.86664 a 9.7316727,9.7316727 0 0 0 9.73168,-9.73168 9.7316727,9.7316727 0 0 0 -9.73168,-9.73167 c -43.40973,0 -78.04019,-33.45664 -78.04019,-74.43318 0,-40.97654 34.63046,-74.433174 78.04019,-74.433174 a 9.7316727,9.7316727 0 0 0 9.73168,-9.731673 9.7316727,9.7316727 0 0 0 -9.73168,-9.731673 c -31.82576,0 -60.20038,14.907099 -78.04019,37.866634 V 38.123405 a 9.7316727,9.7316727 0 0 0 -9.73167,-9.731673 z"
       style="fill:#ffffff;stroke:none;stroke-width:0.999999" />
  </g>
</svg>
