<?xml version="1.0" encoding="UTF-8" standalone="no"?>
<svg
   xmlns:dc="http://purl.org/dc/elements/1.1/"
   xmlns:cc="http://creativecommons.org/ns#"
   xmlns:rdf="http://www.w3.org/1999/02/22-rdf-syntax-ns#"
   xmlns:svg="http://www.w3.org/2000/svg"
   xmlns="http://www.w3.org/2000/svg"
   width="200mm"
   height="200mm"
   viewBox="0 0 210 297"
   version="1.1"
   id="svg8">
  <metadata
     id="metadata2640">
    <rdf:RDF>
      <cc:Work
         rdf:about="">
        <dc:format>image/svg+xml</dc:format>
        <dc:type
           rdf:resource="http://purl.org/dc/dcmitype/StillImage" />
        <dc:title></dc:title>
      </cc:Work>
    </rdf:RDF>
  </metadata>
  <defs
     id="defs2" />
  <g
     id="layer1">
    <circle
       style="fill:#000000;stroke:#231f20;stroke-width:0.0529167"
       id="path833"
       cx="105"
       cy="148.5"
       r="148.47354" />
    <path
       id="path3203"
       style="font-style:normal;font-variant:normal;font-weight:bold;font-stretch:normal;font-size:285.639px;font-family:'DejaVu Sans';-inkscape-font-specification:'DejaVu Sans Bold';fill:#ffffff;stroke-width:0.264583px"
       d="M 55.961429,87.240216 H 41.177379 V 66.179918 h 14.78405 V 41.074927 h 21.19977 V 66.179918 H 101.98725 V 87.240216 H 77.161199 v 53.975734 q 15.481411,-15.20247 36.681181,-15.20247 24.82605,0 41.42324,17.99191 16.73666,17.99191 16.73666,44.07321 0,12.55249 -9.76306,28.59179 -9.76305,15.89983 -9.76305,32.77596 v 0.27895 h -21.0603 q 0,-18.41033 9.76306,-35.00752 9.90252,-16.59719 9.90252,-26.63918 0,-17.15508 -10.87883,-28.87074 -10.73936,-11.85514 -26.22077,-11.85514 -15.341937,0 -26.081294,11.85514 -10.739357,11.85513 -10.739357,28.87074 v 61.6467 h -21.19977 z" />
  </g>
</svg>
