<?xml version="1.0" encoding="UTF-8" standalone="no"?>
<svg
   xmlns:dc="http://purl.org/dc/elements/1.1/"
   xmlns:cc="http://creativecommons.org/ns#"
   xmlns:rdf="http://www.w3.org/1999/02/22-rdf-syntax-ns#"
   xmlns:svg="http://www.w3.org/2000/svg"
   xmlns="http://www.w3.org/2000/svg"
   width="200mm"
   height="200mm"
   viewBox="0 0 210 297"
   version="1.1"
   id="svg8">
  <metadata
     id="metadata863">
    <rdf:RDF>
      <cc:Work
         rdf:about="">
        <dc:format>image/svg+xml</dc:format>
        <dc:type
           rdf:resource="http://purl.org/dc/dcmitype/StillImage" />
        <dc:title></dc:title>
      </cc:Work>
    </rdf:RDF>
  </metadata>
  <defs
     id="defs2" />
  <g
     id="layer1">
    <circle
       style="fill:#000000;stroke:#231f20;stroke-width:0.0529167"
       id="path833"
       cx="105"
       cy="148.5"
       r="148.47354" />
    <path
       id="path1426"
       style="font-style:normal;font-variant:normal;font-weight:bold;font-stretch:normal;font-size:285.639px;font-family:'DejaVu Sans';-inkscape-font-specification:'DejaVu Sans Bold';fill:#ffffff;stroke-width:0.264583px"
       d="m 161.40884,106.83457 q 0,-22.873441 -16.31825,-38.773269 -16.31824,-15.899827 -39.05221,-15.899827 -22.594487,0 -38.773258,15.899827 -16.0393,15.899828 -16.0393,38.773269 0,22.73396 16.0393,37.79695 16.178771,15.063 38.773258,15.063 22.73397,0 39.05221,-15.063 16.31825,-15.06299 16.31825,-37.79695 z m -111.717212,55.0915 q -23.570797,-21.89713 -23.570797,-55.0915 0,-33.333854 23.431325,-56.486234 23.431325,-23.152381 56.486224,-23.152381 33.19438,0 56.76518,23.152381 23.71027,23.15238 23.71027,56.486234 0,33.33384 -23.5708,55.0915 -18.96822,17.5735 -44.07321,20.084 v 36.82065 h 37.93643 v 17.29455 h -37.93643 v 35.84435 H 93.764834 V 236.12527 H 55.828403 V 218.83072 H 93.764834 V 181.87059 Q 68.520371,179.49957 49.691628,161.92607 Z" />
  </g>
</svg>
