<?xml version="1.0" encoding="UTF-8" standalone="no"?>
<svg
   xmlns:dc="http://purl.org/dc/elements/1.1/"
   xmlns:cc="http://creativecommons.org/ns#"
   xmlns:rdf="http://www.w3.org/1999/02/22-rdf-syntax-ns#"
   xmlns:svg="http://www.w3.org/2000/svg"
   xmlns="http://www.w3.org/2000/svg"
   width="200mm"
   height="200mm"
   viewBox="0 0 210 297"
   version="1.1"
   id="svg8">
  <metadata
     id="metadata9">
    <rdf:RDF>
      <cc:Work
         rdf:about="">
        <dc:format>image/svg+xml</dc:format>
        <dc:type
           rdf:resource="http://purl.org/dc/dcmitype/StillImage" />
        <dc:title></dc:title>
      </cc:Work>
    </rdf:RDF>
  </metadata>
  <defs
     id="defs2" />
  <g
     id="layer1">
    <circle
       style="fill:#000000;stroke:#231f20;stroke-width:0.0529167"
       id="path833"
       cx="105"
       cy="148.5"
       r="148.47354" />
    <path
       id="path930"
       d="M 55.412109 43.496094 C 24.206529 43.496094 -1.3027344 69.0055 -1.3027344 100.21094 C -1.3027344 131.41668 24.206529 156.92578 55.412109 156.92578 A 8 8 0 0 0 63.412109 148.92578 A 8 8 0 0 0 55.412109 140.92578 C 32.878814 140.92578 14.697266 122.74442 14.697266 100.21094 C 14.697266 77.677871 32.878814 59.496094 55.412109 59.496094 L 96.126953 59.496094 L 96.126953 246.35742 A 8 8 0 0 0 104.12695 254.35742 A 8 8 0 0 0 112.12695 246.35742 L 112.12695 59.496094 L 152.84375 59.496094 C 175.377 59.496094 193.55859 77.67788 193.55859 100.21094 C 193.55859 122.74441 175.377 140.92578 152.84375 140.92578 A 8 8 0 0 0 144.84375 148.92578 A 8 8 0 0 0 152.84375 156.92578 C 184.0493 156.92578 209.55859 131.41668 209.55859 100.21094 C 209.55859 69.005491 184.0493 43.496094 152.84375 43.496094 L 104.12695 43.496094 L 55.412109 43.496094 z M 55.412109 67.853516 C 37.630549 67.853516 23.054688 82.429319 23.054688 100.21094 C 23.054688 117.99255 37.6304 132.56836 55.412109 132.56836 C 73.193815 132.56836 87.769531 117.99255 87.769531 100.21094 C 87.769531 82.429319 73.193666 67.853516 55.412109 67.853516 z M 152.84375 67.853516 C 135.06217 67.853516 120.48437 82.429337 120.48438 100.21094 C 120.48437 117.99253 135.06202 132.56836 152.84375 132.56836 C 170.62546 132.56836 185.20117 117.99253 185.20117 100.21094 C 185.20117 82.429337 170.62531 67.853516 152.84375 67.853516 z M 55.412109 83.853516 C 64.576051 83.853516 71.769531 91.047052 71.769531 100.21094 C 71.769531 109.37481 64.575902 116.56836 55.412109 116.56836 C 46.248311 116.56836 39.054688 109.37481 39.054688 100.21094 C 39.054688 91.047052 46.248161 83.853516 55.412109 83.853516 z M 152.84375 83.853516 C 162.00769 83.853516 169.20117 91.047034 169.20117 100.21094 C 169.20117 109.37482 162.00754 116.56836 152.84375 116.56836 C 143.6799 116.56836 136.48438 109.37482 136.48438 100.21094 C 136.48438 91.047034 143.67975 83.853516 152.84375 83.853516 z "
       style="fill:#ffffff;stroke:none" />
  </g>
</svg>
