<?xml version="1.0" encoding="UTF-8" standalone="no"?>
<svg
   xmlns:dc="http://purl.org/dc/elements/1.1/"
   xmlns:cc="http://creativecommons.org/ns#"
   xmlns:rdf="http://www.w3.org/1999/02/22-rdf-syntax-ns#"
   xmlns:svg="http://www.w3.org/2000/svg"
   xmlns="http://www.w3.org/2000/svg"
   width="200mm"
   height="200mm"
   viewBox="0 0 210 297"
   version="1.1"
   id="svg8">
  <metadata
     id="metadata9">
    <rdf:RDF>
      <cc:Work
         rdf:about="">
        <dc:format>image/svg+xml</dc:format>
        <dc:type
           rdf:resource="http://purl.org/dc/dcmitype/StillImage" />
        <dc:title></dc:title>
      </cc:Work>
    </rdf:RDF>
  </metadata>
  <defs
     id="defs2" />
  <g
     id="layer1">
    <circle
       style="fill:#000000;stroke:#231f20;stroke-width:0.0529167"
       id="path833"
       cx="105"
       cy="148.5"
       r="148.47354" />
    <path
       id="path838"
       style="font-style:normal;font-variant:normal;font-weight:bold;font-stretch:normal;font-size:285.639px;font-family:'DejaVu Sans';-inkscape-font-specification:'DejaVu Sans Bold';fill:#ffffff;stroke-width:0.264583px"
       d="m 233.17497,148.74013 q 0,53.02874 -37.34179,90.37051 -37.34177,37.17128 -90.37051,37.17128 -52.687721,0 -90.029497,-37.17128 -37.341779,-37.34177 -37.341779,-90.37051 0,-33.07902 17.0510418,-63.77089 17.2215502,-30.862384 47.9134232,-47.231382 30.691873,-16.53951 62.406811,-16.53951 32.22646,0 62.91835,16.53951 30.69187,16.368998 47.7429,47.060871 17.05105,30.521371 17.05105,63.941401 z m -242.6363153,0 q 0,47.74292 33.5905493,81.33347 33.590555,33.42003 81.333466,33.42003 47.74291,0 81.33347,-33.42003 33.59055,-33.59055 33.59055,-81.33347 0,-30.18034 -15.34594,-57.632512 -15.34593,-27.452179 -42.96863,-42.286584 -27.62268,-14.834406 -56.60945,-14.834406 -28.986777,0 -56.609457,14.834406 Q 21.230527,63.655439 5.8845908,91.107618 -9.4613453,118.55979 -9.4613453,148.74013 Z m 146.9799753,0 q 0,13.29981 -9.37808,22.67789 -9.20755,9.20756 -22.50736,9.20756 -13.129314,0 -22.507385,-9.20756 -9.378073,-9.37808 -9.378073,-22.67789 0,-8.355 4.262755,-16.02797 4.262768,-7.67297 11.935739,-11.76522 7.67296,-4.09225 15.686964,-4.09225 8.01398,0 15.68695,4.09225 7.67296,4.09225 11.93573,11.76522 4.26276,7.67297 4.26276,16.02797 z" />
  </g>
</svg>
