<?xml version="1.0" encoding="UTF-8" standalone="no"?>
<svg
   xmlns:dc="http://purl.org/dc/elements/1.1/"
   xmlns:cc="http://creativecommons.org/ns#"
   xmlns:rdf="http://www.w3.org/1999/02/22-rdf-syntax-ns#"
   xmlns:svg="http://www.w3.org/2000/svg"
   xmlns="http://www.w3.org/2000/svg"
   width="200mm"
   height="200mm"
   viewBox="0 0 210 297"
   version="1.1"
   id="svg8">
  <metadata
     id="metadata9">
    <rdf:RDF>
      <cc:Work
         rdf:about="">
        <dc:format>image/svg+xml</dc:format>
        <dc:type
           rdf:resource="http://purl.org/dc/dcmitype/StillImage" />
        <dc:title></dc:title>
      </cc:Work>
    </rdf:RDF>
  </metadata>
  <defs
     id="defs2" />
  <g
     id="layer1">
    <circle
       style="fill:#000000;stroke:#231f20;stroke-width:0.0529167"
       id="path833"
       cx="105"
       cy="148.5"
       r="148.47354" />
    <path
       id="path834"
       style="font-style:normal;font-variant:normal;font-weight:bold;font-stretch:normal;font-size:285.639px;font-family:'DejaVu Sans';-inkscape-font-specification:'DejaVu Sans Bold';fill:#ffffff;stroke-width:0.264582px"
       d="m 102.55618,270.64219 q -51.869661,0 -82.581961,-32.75979 -30.7123,-32.7598 -30.7123,-86.44944 0,-58.694625 32.077291,-91.681898 32.077291,-32.987291 86.67693,-32.987291 52.09716,0 81.21698,32.077294 29.34731,32.077281 29.34731,88.951925 0,55.73714 -31.6223,89.40692 -31.39479,33.44228 -84.40195,33.44228 z M 50.914017,217.86254 q 14.787403,15.01489 35.717267,19.56485 V 159.39542 H 27.936667 q 2.274986,37.08225 22.97735,58.46712 z M 179.90568,159.39542 h -55.96463 v 78.25947 q 51.86965,-9.78243 55.96463,-78.25947 z M 54.098997,76.358456 Q 34.079127,94.558335 28.846662,127.77312 H 86.631284 V 59.978557 Q 67.976405,64.073532 54.098997,76.358456 Z M 178.99568,127.77312 Q 171.03324,69.078502 123.94105,59.978557 v 67.794563 z" />
  </g>
</svg>
