<?xml version="1.0" encoding="UTF-8" standalone="no"?>
<svg
   xmlns:dc="http://purl.org/dc/elements/1.1/"
   xmlns:cc="http://creativecommons.org/ns#"
   xmlns:rdf="http://www.w3.org/1999/02/22-rdf-syntax-ns#"
   xmlns:svg="http://www.w3.org/2000/svg"
   xmlns="http://www.w3.org/2000/svg"
   width="200mm"
   height="200mm"
   viewBox="0 0 210 297"
   version="1.1"
   id="svg8">
  <metadata
     id="metadata9">
    <rdf:RDF>
      <cc:Work
         rdf:about="">
        <dc:format>image/svg+xml</dc:format>
        <dc:type
           rdf:resource="http://purl.org/dc/dcmitype/StillImage" />
        <dc:title></dc:title>
      </cc:Work>
    </rdf:RDF>
  </metadata>
  <defs
     id="defs2" />
  <g
     id="layer1">
    <circle
       style="fill:#000000;stroke:#231f20;stroke-width:0.0529167"
       id="path833"
       cx="105"
       cy="148.5"
       r="148.47354" />
    <path
       id="path940"
       d="M 69.748047 40.033203 A 8 8 0 0 0 61.748047 48.033203 L 61.748047 90.263672 L 2.8007812 90.263672 A 8 8 0 0 0 -5.1992188 98.263672 A 8 8 0 0 0 2.8007812 106.26367 L 61.748047 106.26367 L 61.748047 140.49414 L 2.8007812 140.49414 A 8 8 0 0 0 -5.1992188 148.49414 A 8 8 0 0 0 2.8007812 156.49414 L 69.748047 156.49414 L 128.77539 156.49414 L 128.77539 184.5332 C 116.24938 191.52829 106.4649 200.96477 97.605469 209.82422 C 80.868568 226.56114 67.121575 240.95508 36.314453 240.95508 C 22.108367 240.95508 10.800781 229.64758 10.800781 215.44141 C 10.800781 201.33224 22.108364 190.00586 36.314453 190.00586 A 8 8 0 0 0 44.314453 182.00586 A 8 8 0 0 0 36.314453 174.00586 C 13.475612 174.00586 -5.1992188 192.66274 -5.1992188 215.44141 C -5.1992188 238.28029 13.475609 256.95508 36.314453 256.95508 C 72.454916 256.95508 92.181069 237.87364 108.91797 221.13672 C 115.57667 214.47801 121.80066 208.2421 128.77539 203.08398 L 128.77539 215.44141 C 128.77539 238.28029 147.43029 256.95508 170.20898 256.95508 C 181.20197 256.95508 191.78124 252.5874 199.56836 244.80078 C 207.35563 237.01359 211.72266 226.43432 211.72266 215.44141 C 211.72266 192.66273 193.04781 174.00586 170.20898 174.00586 C 160.64381 174.00586 152.28996 175.40576 144.77539 177.68164 L 144.77539 156.49414 L 203.72266 156.49414 A 8 8 0 0 0 211.72266 148.49414 A 8 8 0 0 0 203.72266 140.49414 L 144.77539 140.49414 L 144.77539 106.26367 L 203.72266 106.26367 A 8 8 0 0 0 211.72266 98.263672 A 8 8 0 0 0 203.72266 90.263672 L 144.77539 90.263672 L 144.77539 48.033203 A 8 8 0 0 0 136.77539 40.033203 A 8 8 0 0 0 128.77539 48.033203 L 128.77539 90.263672 L 77.748047 90.263672 L 77.748047 48.033203 A 8 8 0 0 0 69.748047 40.033203 z M 77.748047 106.26367 L 128.77539 106.26367 L 128.77539 140.49414 L 77.748047 140.49414 L 77.748047 106.26367 z M 170.20898 190.00586 C 184.41504 190.00586 195.72266 201.33224 195.72266 215.44141 C 195.72266 222.18673 193.02621 228.71602 188.25586 233.48633 C 183.4854 238.25647 176.95362 240.95508 170.20898 240.95508 C 156.0998 240.95508 144.77539 229.64758 144.77539 215.44141 L 144.77539 194.35547 C 151.92493 191.67545 160.08745 190.00586 170.20898 190.00586 z "
       style="fill:#ffffff;stroke:none" />
  </g>
</svg>
