<?xml version="1.0" encoding="UTF-8" standalone="no"?>
<svg
   xmlns:dc="http://purl.org/dc/elements/1.1/"
   xmlns:cc="http://creativecommons.org/ns#"
   xmlns:rdf="http://www.w3.org/1999/02/22-rdf-syntax-ns#"
   xmlns:svg="http://www.w3.org/2000/svg"
   xmlns="http://www.w3.org/2000/svg"
   width="200mm"
   height="200mm"
   viewBox="0 0 210 297"
   version="1.1"
   id="svg8">
  <metadata
     id="metadata9">
    <rdf:RDF>
      <cc:Work
         rdf:about="">
        <dc:format>image/svg+xml</dc:format>
        <dc:type
           rdf:resource="http://purl.org/dc/dcmitype/StillImage" />
        <dc:title></dc:title>
      </cc:Work>
    </rdf:RDF>
  </metadata>
  <defs
     id="defs2" />
  <g
     id="layer1">
    <circle
       style="fill:#000000;stroke:#231f20;stroke-width:0.0529167"
       id="path833"
       cx="105"
       cy="148.5"
       r="148.47354" />
    <path
       id="path842"
       d="M 85.206168,238.03607 -15.120421,137.70947 85.206168,37.382865 185.53278,137.70947 152.61723,170.62503 88.629396,132.17965 c -1.053294,-0.52664 -2.106598,-0.78996 -3.159902,-0.78996 -1.755489,0 -3.335435,0.61442 -4.739826,1.84327 -1.404402,1.22885 -2.106598,2.72102 -2.106598,4.47651 0,1.0533 0.351098,2.19438 1.053294,3.42323 l 38.445366,63.98782 z m 90.583602,-9.74301 -44.76515,-26.85908 -26.59576,-44.50183 44.50183,26.59576 z m 19.22269,25.80579 c 1.75549,0 3.29155,-0.65831 4.60816,-1.97493 1.31662,-1.31662 1.97494,-2.85269 1.97494,-4.60818 0,-1.40439 -0.52665,-2.80879 -1.57994,-4.21318 l -37.91872,-63.46119 37.39207,-37.39205 c 1.22884,-1.22886 1.84327,-2.72104 1.84327,-4.47653 0,-2.10658 -0.61443,-3.77431 -1.84327,-5.00316 L 89.946016,23.426672 c -1.228848,-1.228847 -2.808794,-1.843271 -4.739848,-1.843271 -1.931033,0 -3.510978,0.614424 -4.739837,1.843271 L -29.076612,132.96963 c -1.228846,1.22885 -1.843269,2.80879 -1.843269,4.73984 0,1.93104 0.614423,3.51099 1.843269,4.73985 L 79.93969,251.4656 c 1.228848,1.75551 2.984337,2.63325 5.266478,2.63325 2.282163,0 4.037652,-0.87774 5.2665,-2.63325 l 36.865412,-36.86541 63.19785,37.91872 c 1.05331,1.0533 2.54548,1.57994 4.47653,1.57994 z"
       style="fill:#ffffff;stroke:none;stroke-width:1.47805" />
  </g>
</svg>
