<?xml version="1.0" encoding="UTF-8" standalone="no"?>
<svg
   xmlns:dc="http://purl.org/dc/elements/1.1/"
   xmlns:cc="http://creativecommons.org/ns#"
   xmlns:rdf="http://www.w3.org/1999/02/22-rdf-syntax-ns#"
   xmlns:svg="http://www.w3.org/2000/svg"
   xmlns="http://www.w3.org/2000/svg"
   width="200mm"
   height="200mm"
   viewBox="0 0 210 297"
   version="1.1"
   id="svg8">
  <metadata
     id="metadata9">
    <rdf:RDF>
      <cc:Work
         rdf:about="">
        <dc:format>image/svg+xml</dc:format>
        <dc:type
           rdf:resource="http://purl.org/dc/dcmitype/StillImage" />
        <dc:title></dc:title>
      </cc:Work>
    </rdf:RDF>
  </metadata>
  <defs
     id="defs2" />
  <g
     id="layer1">
    <circle
       style="fill:#000000;stroke:#231f20;stroke-width:0.0529167"
       id="path833"
       cx="105"
       cy="148.5"
       r="148.47354" />
    <path
       id="path950"
       d="m 104.99376,27.209656 c -66.868212,0 -121.284106,54.416257 -121.284106,121.284104 0,66.86825 54.415895,121.28411 121.284106,121.28411 66.86786,0 121.28212,-54.41586 121.28212,-121.28411 0,-66.867846 -54.41426,-121.284104 -121.28212,-121.284104 z m 0,20.326502 c 55.88519,0 100.95562,45.072436 100.95562,100.957602 0,9.33822 -1.36087,18.33228 -3.71792,26.90681 h -58.55581 c 5.35291,-7.65569 8.54944,-16.91331 8.54944,-26.90681 0,-25.97119 -21.26014,-47.23132 -47.23133,-47.23132 -25.971536,0 -47.233309,21.26013 -47.233309,47.23132 0,3.17199 0.331439,6.31014 0.952805,9.37719 0.184561,0.90613 0.559922,1.73332 0.795989,2.62021 0.564004,2.13755 1.115853,4.27798 1.971114,6.31234 0.08202,0.19332 0.209269,0.35981 0.293782,0.55183 2.337343,5.36034 5.59891,10.32717 9.81389,14.54218 l 0.004,0.002 63.172939,63.0995 c -9.40741,2.88559 -19.4,4.45238 -29.77118,4.45238 -55.885602,0 -100.957603,-45.07196 -100.957603,-100.95761 0,-55.885165 45.072003,-100.957601 100.957603,-100.957601 z m 0,74.052782 c 15.00391,0 26.90483,11.90092 26.90483,26.90482 0,15.00443 -11.90092,26.90681 -26.90483,26.90681 -3.75112,0 -7.308667,-0.74397 -10.534445,-2.09419 -1.612889,-0.6751 -3.143465,-1.50229 -4.573463,-2.46339 -1.230838,-0.82725 -2.346534,-1.7993 -3.418187,-2.81475 l -0.510147,-0.50816 c -5.025373,-5.02814 -7.870565,-11.91723 -7.870565,-19.02632 0,-15.0039 11.902306,-26.90482 26.906807,-26.90482 z m 9.20251,74.13813 h 80.04949 c -8.99874,17.01639 -22.71978,31.08912 -39.43222,40.56964 z"
       style="fill:#ffffff;stroke:none;stroke-width:1" />
  </g>
</svg>
