<?xml version="1.0" encoding="UTF-8" standalone="no"?>
<svg
   xmlns:dc="http://purl.org/dc/elements/1.1/"
   xmlns:cc="http://creativecommons.org/ns#"
   xmlns:rdf="http://www.w3.org/1999/02/22-rdf-syntax-ns#"
   xmlns:svg="http://www.w3.org/2000/svg"
   xmlns="http://www.w3.org/2000/svg"
   width="200mm"
   height="200mm"
   viewBox="0 0 210 297"
   version="1.1"
   id="svg8">
  <metadata
     id="metadata9">
    <rdf:RDF>
      <cc:Work
         rdf:about="">
        <dc:format>image/svg+xml</dc:format>
        <dc:type
           rdf:resource="http://purl.org/dc/dcmitype/StillImage" />
        <dc:title></dc:title>
      </cc:Work>
    </rdf:RDF>
  </metadata>
  <defs
     id="defs2" />
  <g
     id="layer1">
    <circle
       style="fill:#000000;stroke:#231f20;stroke-width:0.0529167"
       id="path833"
       cx="105"
       cy="148.5"
       r="148.47354" />
    <path
       id="path920"
       d="M 105.21094 47.326172 C 87.827097 47.326172 73.597656 61.645892 73.597656 79.046875 C 73.597656 96.448087 87.827096 110.76758 105.21094 110.76758 C 122.5948 110.76758 136.82227 96.448088 136.82227 79.046875 C 136.82227 61.645891 122.5948 47.326172 105.21094 47.326172 z M 105.21094 64.326172 C 113.39573 64.326172 119.82227 70.759537 119.82227 79.046875 C 119.82227 87.334694 113.39573 93.767578 105.21094 93.767578 C 97.026191 93.767578 90.597656 87.334695 90.597656 79.046875 C 90.597656 70.759536 97.02619 64.326172 105.21094 64.326172 z M 12.757812 116.98828 A 8.5 8.5 0 0 0 4.2578125 125.48828 A 8.5 8.5 0 0 0 12.757812 133.98828 L 50.138672 133.98828 C 49.288464 161.68321 44.625399 186.65899 37.537109 204.45117 C 33.627325 214.26505 29.019006 221.89973 24.548828 226.64844 C 20.07865 231.39715 16.244989 233.09375 12.757812 233.09375 A 8.5 8.5 0 0 0 4.2578125 241.59375 A 8.5 8.5 0 0 0 12.757812 250.09375 C 22.018825 250.09375 30.3403 245.29867 36.927734 238.30078 C 43.515169 231.30289 48.86852 221.93811 53.328125 210.74414 C 61.460621 190.33092 66.31528 163.53645 67.146484 133.98828 L 143.27344 133.98828 C 144.10464 163.53645 148.9593 190.33092 157.0918 210.74414 C 161.5514 221.93811 166.9067 231.30289 173.49414 238.30078 C 180.08158 245.29867 188.4011 250.09375 197.66211 250.09375 A 8.5 8.5 0 0 0 206.16211 241.59375 A 8.5 8.5 0 0 0 197.66211 233.09375 C 194.17493 233.09375 190.34127 231.39715 185.87109 226.64844 C 181.40091 221.89973 176.79455 214.26505 172.88477 204.45117 C 165.79648 186.65899 161.13146 161.68321 160.28125 133.98828 L 197.66211 133.98828 A 8.5 8.5 0 0 0 206.16211 125.48828 A 8.5 8.5 0 0 0 197.66211 116.98828 L 151.43555 116.98828 L 58.984375 116.98828 L 12.757812 116.98828 z M 105.21094 140.21094 C 87.827099 140.21094 73.597656 154.53066 73.597656 171.93164 C 73.597656 189.33262 87.827095 203.65234 105.21094 203.65234 C 122.5948 203.65234 136.82227 189.33262 136.82227 171.93164 C 136.82227 154.53066 122.5948 140.21094 105.21094 140.21094 z M 105.21094 157.21094 C 113.39574 157.21094 119.82227 163.6443 119.82227 171.93164 C 119.82227 180.21898 113.39573 186.65234 105.21094 186.65234 C 97.026192 186.65234 90.597656 180.21898 90.597656 171.93164 C 90.597656 163.6443 97.026188 157.21094 105.21094 157.21094 z "
       style="fill:#ffffff;stroke:none" />
  </g>
</svg>
