<?xml version="1.0" encoding="UTF-8" standalone="no"?>
<svg
   xmlns:dc="http://purl.org/dc/elements/1.1/"
   xmlns:cc="http://creativecommons.org/ns#"
   xmlns:rdf="http://www.w3.org/1999/02/22-rdf-syntax-ns#"
   xmlns:svg="http://www.w3.org/2000/svg"
   xmlns="http://www.w3.org/2000/svg"
   id="svg8"
   version="1.1"
   viewBox="0 0 210 297"
   height="200mm"
   width="200mm">
  <metadata
     id="metadata9">
    <rdf:RDF>
      <cc:Work
         rdf:about="">
        <dc:format>image/svg+xml</dc:format>
        <dc:type
           rdf:resource="http://purl.org/dc/dcmitype/StillImage" />
        <dc:title></dc:title>
      </cc:Work>
    </rdf:RDF>
  </metadata>
  <defs
     id="defs2" />
  <g
     id="layer1">
    <circle
       r="148.47354"
       cy="148.5"
       cx="105"
       id="path833"
       style="fill:#000000;stroke:#231f20;stroke-width:0.0529167" />
    <path
       id="path835"
       d="M 38.421875 52.023438 C 20.112465 52.023438 4.8554687 66.834862 4.8554688 85.099609 C 4.8554687 102.68808 19.03963 116.93529 36.4375 117.97656 A 10 10 0 0 0 37.076172 118.08594 A 10 10 0 0 0 37.341797 118.11914 A 10 10 0 0 0 37.605469 118.14258 A 10 10 0 0 0 38.136719 118.17188 A 10 10 0 0 0 38.421875 118.17578 L 75.554688 118.17578 L 75.554688 154.33008 A 10.001 10.001 0 0 0 85.554688 164.33008 C 132.33223 164.33008 169.82422 201.16955 169.82422 246.63672 A 10 10 0 0 0 179.82422 256.63672 A 10 10 0 0 0 189.82422 246.63672 C 189.82422 193.45745 148.26374 149.78354 95.554688 144.82617 L 95.554688 118.17578 L 109.12305 118.17578 A 10 10 0 0 0 119.12305 108.17578 A 10 10 0 0 0 109.12305 98.175781 L 95.554688 98.175781 L 95.554688 62.023438 A 10 10 0 0 0 85.554688 52.023438 A 10 10 0 0 0 75.554688 62.023438 L 75.554688 98.175781 L 69.205078 98.175781 C 70.980628 94.16163 71.988281 89.748397 71.988281 85.099609 C 71.988281 66.834862 56.731305 52.023438 38.421875 52.023438 z M 38.421875 72.023438 C 46.183431 72.023438 51.988281 77.835887 51.988281 85.099609 C 51.988281 92.363358 46.183256 98.175781 38.421875 98.175781 C 30.660541 98.175781 24.855469 92.363358 24.855469 85.099609 C 24.855469 77.835886 30.660367 72.023437 38.421875 72.023438 z "
       style="fill:#ffffff;stroke:none" />
  </g>
</svg>
