<?xml version="1.0" encoding="UTF-8" standalone="no"?>
<svg
   xmlns:dc="http://purl.org/dc/elements/1.1/"
   xmlns:cc="http://creativecommons.org/ns#"
   xmlns:rdf="http://www.w3.org/1999/02/22-rdf-syntax-ns#"
   xmlns:svg="http://www.w3.org/2000/svg"
   xmlns="http://www.w3.org/2000/svg"
   width="200mm"
   height="200mm"
   viewBox="0 0 210 297"
   version="1.1"
   id="svg8">
  <metadata
     id="metadata1473">
    <rdf:RDF>
      <cc:Work
         rdf:about="">
        <dc:format>image/svg+xml</dc:format>
        <dc:type
           rdf:resource="http://purl.org/dc/dcmitype/StillImage" />
        <dc:title></dc:title>
      </cc:Work>
    </rdf:RDF>
  </metadata>
  <defs
     id="defs2" />
  <g
     id="layer1">
    <circle
       style="fill:#000000;stroke:#231f20;stroke-width:0.0529167"
       id="path833"
       cx="105"
       cy="148.5"
       r="148.47354" />
    <path
       id="path2036"
       style="font-style:normal;font-variant:normal;font-weight:bold;font-stretch:normal;font-size:285.639px;font-family:'DejaVu Sans';-inkscape-font-specification:'DejaVu Sans Bold';fill:#ffffff;stroke-width:0.264583px"
       d="m 127.05197,188.48487 q 0,-22.87344 -16.31824,-38.77327 -16.318246,-15.89982 -39.05221,-15.89982 -22.594492,0 -38.773264,15.89982 -16.0393,15.89983 -16.0393,38.77327 0,22.87343 16.0393,37.93643 16.178772,15.06299 38.773264,15.06299 22.733964,0 39.05221,-15.06299 16.31824,-15.063 16.31824,-37.93643 z m 25.10499,0 q 0,32.35754 -23.15238,54.95203 -23.01291,22.45502 -56.486227,22.45502 -33.333849,0 -57.044118,-22.0366 -23.7102695,-22.17608 -23.7102695,-55.37045 0,-33.19438 23.9892135,-56.90465 24.128686,-23.84974 56.067813,-22.59449 31.939128,1.11578 47.560008,15.48141 l 50.34946,-48.536316 h -51.74418 l 19.5261,-19.805048 h 68.89926 V 124.74608 L 186.46712,144.6906 V 92.667485 L 136.53608,141.2038 q 15.62088,20.36294 15.62088,47.28107 z" />
  </g>
</svg>
