<?xml version="1.0" encoding="UTF-8" standalone="no"?>
<svg
   xmlns:dc="http://purl.org/dc/elements/1.1/"
   xmlns:cc="http://creativecommons.org/ns#"
   xmlns:rdf="http://www.w3.org/1999/02/22-rdf-syntax-ns#"
   xmlns:svg="http://www.w3.org/2000/svg"
   xmlns="http://www.w3.org/2000/svg"
   xmlns:sodipodi="http://sodipodi.sourceforge.net/DTD/sodipodi-0.dtd"
   xmlns:inkscape="http://www.inkscape.org/namespaces/inkscape"
   inkscape:version="1.0 (4035a4fb49, 2020-05-01)"
   sodipodi:docname="planet_mars.svg"
   width="200mm"
   height="200mm"
   viewBox="0 0 210 297"
   version="1.1"
   id="svg8">
  <sodipodi:namedview
     inkscape:current-layer="svg8"
     inkscape:window-maximized="0"
     inkscape:window-y="46"
     inkscape:window-x="1570"
     inkscape:cy="377.95276"
     inkscape:cx="377.95276"
     inkscape:zoom="0.90549316"
     showgrid="false"
     id="namedview1453"
     inkscape:window-height="1198"
     inkscape:window-width="1372"
     inkscape:pageshadow="2"
     inkscape:pageopacity="0"
     guidetolerance="10"
     gridtolerance="10"
     objecttolerance="10"
     borderopacity="1"
     bordercolor="#666666"
     pagecolor="#ffffff" />
  <defs
     id="defs2" />
  <g
     id="layer1">
    <circle
       style="fill:#000000;stroke:#231f20;stroke-width:0.0529167"
       id="path833"
       cx="105"
       cy="148.5"
       r="148.47354" />
    <path
       style="fill:#ffffff;stroke-width:0.264583px"
       d="m 138.55054,84.520957 q 5.57888,3.626277 10.59988,8.647275 18.5498,18.270858 18.5498,44.631098 0,26.22077 -18.41032,43.51531 -15.063,13.94722 -35.00752,15.89983 v 29.14969 l 30.12599,-0.27895 v 13.94722 l -30.68388,0.13947 0.13947,28.17338 H 95.872054 L 95.732581,240.03243 H 67.559203 V 226.36416 H 95.732581 L 95.453637,197.21447 Q 74.951228,195.40133 59.748761,181.31464 41.198962,164.0201 41.198962,137.79933 q 0,-26.36024 18.549799,-44.631098 5.020998,-5.020998 10.599885,-8.647275 Q 64.769759,81.034153 59.748761,75.873683 41.198962,57.602828 41.198962,31.38206 v -1.115778 h 19.805049 v 1.394722 q 0,18.131382 12.691967,30.683878 11.855135,11.57619 28.173382,12.552495 h 5.29994 q 16.17877,-0.976305 28.03391,-12.552495 12.69196,-12.552496 12.69196,-30.683878 v -1.394722 h 19.80505 v 1.115778 q 0,26.220768 -18.5498,44.491623 -5.021,5.16047 -10.59988,8.647274 z m -31.38124,9.763052 h -5.29994 q -16.318247,0.836833 -28.173382,12.552491 -12.691967,12.41303 -12.691967,30.54441 0,18.13138 12.691967,29.98652 12.83144,11.85513 30.962822,11.85513 17.71297,0 30.40493,-11.85513 12.83144,-11.85514 12.83144,-29.98652 0,-18.13138 -12.69196,-30.54441 Q 123.34807,95.120842 107.1693,94.284009 Z"
       id="path839" />
  </g>
  <metadata
     id="metadata844">
    <rdf:RDF>
      <cc:Work
         rdf:about="">
        <dc:title />
        <dc:format>image/svg+xml</dc:format>
        <dc:type
           rdf:resource="http://purl.org/dc/dcmitype/StillImage" />
      </cc:Work>
    </rdf:RDF>
  </metadata>
</svg>
