<?xml version="1.0" encoding="UTF-8" standalone="no"?>
<svg
   xmlns:dc="http://purl.org/dc/elements/1.1/"
   xmlns:cc="http://creativecommons.org/ns#"
   xmlns:rdf="http://www.w3.org/1999/02/22-rdf-syntax-ns#"
   xmlns:svg="http://www.w3.org/2000/svg"
   xmlns="http://www.w3.org/2000/svg"
   xmlns:sodipodi="http://sodipodi.sourceforge.net/DTD/sodipodi-0.dtd"
   xmlns:inkscape="http://www.inkscape.org/namespaces/inkscape"
   width="200mm"
   height="200mm"
   viewBox="0 0 210 297"
   version="1.1"
   id="svg8"
   inkscape:version="1.0 (4035a4fb49, 2020-05-01)"
   sodipodi:docname="minor_planet_ciron.svg">
  <metadata
     id="metadata9">
    <rdf:RDF>
      <cc:Work
         rdf:about="">
        <dc:format>image/svg+xml</dc:format>
        <dc:type
           rdf:resource="http://purl.org/dc/dcmitype/StillImage" />
        <dc:title></dc:title>
      </cc:Work>
    </rdf:RDF>
  </metadata>
  <defs
     id="defs2" />
  <sodipodi:namedview
     id="base"
     pagecolor="#ffffff"
     bordercolor="#666666"
     borderopacity="1.0"
     inkscape:pageopacity="0.0"
     inkscape:pageshadow="2"
     inkscape:zoom="0.45377994"
     inkscape:cx="298.65803"
     inkscape:cy="452.63834"
     inkscape:document-units="mm"
     inkscape:current-layer="layer1"
     inkscape:document-rotation="0"
     showgrid="false"
     inkscape:window-width="1372"
     inkscape:window-height="1198"
     inkscape:window-x="1389"
     inkscape:window-y="90"
     inkscape:window-maximized="0" />
  <g
     inkscape:label="Taso 1"
     inkscape:groupmode="layer"
     id="layer1">
    <circle
       style="fill:#000000;stroke:#231f20;stroke-width:0.0529167"
       id="path833"
       cx="105"
       cy="148.5"
       r="148.47354" />
    <path
       id="path871"
       style="font-style:normal;font-variant:normal;font-weight:bold;font-stretch:normal;font-size:285.639px;font-family:'DejaVu Sans';-inkscape-font-specification:'DejaVu Sans Bold';fill:#ffffff;stroke-width:0.264583px"
       d="m 86.005077,200.28286 q -8.089386,8.22886 -8.089386,19.80505 0,11.57619 8.089386,19.66557 8.228858,8.22886 19.805053,8.22886 11.57619,0 19.66557,-8.22886 8.22886,-8.08938 8.22886,-19.66557 0,-11.57619 -8.22886,-19.80505 -8.08938,-8.22886 -19.66557,-8.22886 -11.576195,0 -19.805053,8.22886 z m 19.805053,68.62031 q -20.223469,0 -34.728575,-14.36564 -14.365634,-14.36563 -14.365634,-34.58909 0,-20.36294 14.505106,-34.72857 10.041997,-9.90253 23.012908,-12.97092 V 36.403058 h 23.989215 v 42.678485 l 40.86535,-24.128686 11.9946,20.641881 -50.07051,29.149682 50.07051,29.28916 -11.9946,20.64188 -40.86535,-24.26816 v 42.1206 q 12.41302,3.06839 22.17607,12.69197 14.50511,14.36563 14.50511,34.72857 0,20.22346 -14.50511,34.58909 -14.36563,14.36564 -34.58909,14.36564 z" />
  </g>
</svg>
