<?xml version="1.0" encoding="UTF-8" standalone="no"?>
<svg
   xmlns:dc="http://purl.org/dc/elements/1.1/"
   xmlns:cc="http://creativecommons.org/ns#"
   xmlns:rdf="http://www.w3.org/1999/02/22-rdf-syntax-ns#"
   xmlns:svg="http://www.w3.org/2000/svg"
   xmlns="http://www.w3.org/2000/svg"
   width="200mm"
   height="200mm"
   viewBox="0 0 210 297"
   version="1.1"
   id="svg8">
  <metadata
     id="metadata9">
    <rdf:RDF>
      <cc:Work
         rdf:about="">
        <dc:format>image/svg+xml</dc:format>
        <dc:type
           rdf:resource="http://purl.org/dc/dcmitype/StillImage" />
        <dc:title></dc:title>
      </cc:Work>
    </rdf:RDF>
  </metadata>
  <defs
     id="defs2" />
  <g
     id="layer1">
    <circle
       style="fill:#000000;stroke:#231f20;stroke-width:0.0529167"
       id="path833"
       cx="105"
       cy="148.5"
       r="148.47354" />
    <path
       id="path904"
       d="M 104.98242 31.412109 C 66.596266 31.412109 33.837891 59.755786 33.837891 96.191406 C 33.837891 128.58929 59.755227 154.53578 92.482422 159.90039 L 92.482422 225.14062 L 54.65625 191.41992 A 12.5 12.5 0 0 0 37.007812 192.43164 A 12.5 12.5 0 0 0 38.019531 210.08008 L 96.664062 262.35938 A 12.50125 12.50125 0 0 0 96.703125 262.39453 A 12.5 12.5 0 0 0 96.888672 262.55469 A 12.5 12.5 0 0 0 97.0625 262.70117 A 12.50125 12.50125 0 0 0 97.189453 262.80273 A 12.5 12.5 0 0 0 97.3125 262.89844 A 12.50125 12.50125 0 0 0 97.460938 263.01172 A 12.5 12.5 0 0 0 97.5 263.04297 A 12.50125 12.50125 0 0 0 97.650391 263.15234 A 12.5 12.5 0 0 0 97.792969 263.25391 A 12.50125 12.50125 0 0 0 97.890625 263.32227 A 12.5 12.5 0 0 0 98.019531 263.41016 A 12.50125 12.50125 0 0 0 98.134766 263.48633 A 12.5 12.5 0 0 0 98.326172 263.60938 A 12.5 12.5 0 0 0 98.544922 263.74414 A 12.50125 12.50125 0 0 0 98.660156 263.8125 A 12.5 12.5 0 0 0 98.789062 263.88672 A 12.50125 12.50125 0 0 0 98.875 263.93555 A 12.5 12.5 0 0 0 99.097656 264.05664 A 12.5 12.5 0 0 0 99.361328 264.19336 A 12.5 12.5 0 0 0 99.628906 264.32422 A 12.5 12.5 0 0 0 99.845703 264.42578 A 12.50125 12.50125 0 0 0 100.02539 264.50391 A 12.5 12.5 0 0 0 100.08008 264.52734 A 12.50125 12.50125 0 0 0 100.23828 264.59375 A 12.5 12.5 0 0 0 100.4043 264.66016 A 12.50125 12.50125 0 0 0 100.49023 264.69336 A 12.5 12.5 0 0 0 100.72656 264.78125 A 12.5 12.5 0 0 0 100.89844 264.8418 A 12.50125 12.50125 0 0 0 101.08203 264.9043 A 12.5 12.5 0 0 0 101.28711 264.9707 A 12.5 12.5 0 0 0 101.45117 265.01953 A 12.50125 12.50125 0 0 0 101.65039 265.07617 A 12.5 12.5 0 0 0 101.86133 265.13281 A 12.5 12.5 0 0 0 102.02539 265.17383 A 12.50125 12.50125 0 0 0 102.22852 265.22266 A 12.5 12.5 0 0 0 102.44141 265.26758 A 12.5 12.5 0 0 0 102.73242 265.32422 A 12.5 12.5 0 0 0 103.02148 265.375 A 12.5 12.5 0 0 0 103.02539 265.375 A 12.50125 12.50125 0 0 0 103.0332 265.37695 A 12.5 12.5 0 0 0 103.28125 265.41211 A 12.50125 12.50125 0 0 0 103.39648 265.42773 A 12.5 12.5 0 0 0 103.5293 265.44336 A 12.50125 12.50125 0 0 0 103.67773 265.46094 A 12.5 12.5 0 0 0 103.91016 265.48242 A 12.5 12.5 0 0 0 104.10938 265.49805 A 12.50125 12.50125 0 0 0 104.27148 265.50977 A 12.5 12.5 0 0 0 104.50391 265.51953 A 12.5 12.5 0 0 0 104.78125 265.52734 A 12.5 12.5 0 0 0 104.83984 265.52734 A 12.50125 12.50125 0 0 0 105.02148 265.5293 A 12.50125 12.50125 0 0 0 105.2168 265.52539 A 12.50125 12.50125 0 0 0 105.2793 265.52539 A 12.5 12.5 0 0 0 105.39648 265.52148 A 12.5 12.5 0 0 0 105.63867 265.51172 A 12.50125 12.50125 0 0 0 105.77539 265.50391 A 12.5 12.5 0 0 0 105.9707 265.49023 A 12.5 12.5 0 0 0 105.99023 265.48828 A 12.50125 12.50125 0 0 0 106.16992 265.47266 A 12.5 12.5 0 0 0 106.32227 265.45703 A 12.5 12.5 0 0 0 106.58008 265.42578 A 12.5 12.5 0 0 0 106.875 265.38477 A 12.5 12.5 0 0 0 107.16797 265.33594 A 12.5 12.5 0 0 0 107.45508 265.2832 A 12.5 12.5 0 0 0 107.46094 265.28125 A 12.50125 12.50125 0 0 0 107.63867 265.24414 A 12.5 12.5 0 0 0 107.75195 265.21875 A 12.50125 12.50125 0 0 0 107.92773 265.17773 A 12.5 12.5 0 0 0 107.95508 265.16992 A 12.50125 12.50125 0 0 0 108.2168 265.10352 A 12.50125 12.50125 0 0 0 108.47266 265.03125 A 12.50125 12.50125 0 0 0 108.50195 265.02344 A 12.5 12.5 0 0 0 108.61328 264.99023 A 12.50125 12.50125 0 0 0 108.63477 264.98242 A 12.5 12.5 0 0 0 108.89648 264.90039 A 12.5 12.5 0 0 0 109.14648 264.81445 A 12.5 12.5 0 0 0 109.17773 264.80469 A 12.50125 12.50125 0 0 0 109.34766 264.74219 A 12.5 12.5 0 0 0 109.45703 264.70117 A 12.50125 12.50125 0 0 0 109.625 264.63477 A 12.5 12.5 0 0 0 109.73242 264.5918 A 12.50125 12.50125 0 0 0 109.90039 264.52148 A 12.5 12.5 0 0 0 110.00781 264.47461 A 12.50125 12.50125 0 0 0 110.02344 264.4668 A 12.5 12.5 0 0 0 110.27734 264.35156 A 12.5 12.5 0 0 0 110.54492 264.22266 A 12.5 12.5 0 0 0 110.7793 264.10352 A 12.5 12.5 0 0 0 110.81055 264.08789 A 12.50125 12.50125 0 0 0 110.96875 264.00195 A 12.5 12.5 0 0 0 111.07227 263.94531 A 12.50125 12.50125 0 0 0 111.22852 263.85742 A 12.5 12.5 0 0 0 111.26172 263.83789 A 12.50125 12.50125 0 0 0 111.48242 263.70508 A 12.50125 12.50125 0 0 0 111.48438 263.70508 A 12.50125 12.50125 0 0 0 111.73633 263.54688 A 12.5 12.5 0 0 0 111.83398 263.48438 A 12.50125 12.50125 0 0 0 111.98438 263.38477 A 12.5 12.5 0 0 0 112.08203 263.31836 A 12.50125 12.50125 0 0 0 112.22852 263.21484 A 12.5 12.5 0 0 0 112.32422 263.14648 A 12.50125 12.50125 0 0 0 112.46875 263.03906 A 12.5 12.5 0 0 0 112.5625 262.96875 A 12.50125 12.50125 0 0 0 112.70508 262.85938 A 12.5 12.5 0 0 0 112.74023 262.83008 A 12.50125 12.50125 0 0 0 112.91406 262.69141 A 12.50125 12.50125 0 0 0 112.9375 262.67188 A 12.5 12.5 0 0 0 113.02734 262.59766 A 12.50125 12.50125 0 0 0 113.16406 262.48047 A 12.5 12.5 0 0 0 113.25195 262.4043 A 12.50125 12.50125 0 0 0 113.30078 262.35938 A 12.5 12.5 0 0 0 113.30664 262.35352 L 113.38672 262.2832 A 12.5 12.5 0 0 0 113.39648 262.27344 L 171.94531 210.08008 A 12.5 12.5 0 0 0 172.95898 192.43164 A 12.5 12.5 0 0 0 155.30859 191.41992 L 117.48242 225.14062 L 117.48242 159.90039 C 150.20957 154.53578 176.12695 128.5893 176.12695 96.191406 C 176.12695 59.75577 143.36851 31.412109 104.98242 31.412109 z M 104.98242 56.412109 C 131.28874 56.412109 151.12695 74.956107 151.12695 96.191406 C 151.12695 117.42642 131.28866 135.9707 104.98242 135.9707 C 78.676077 135.9707 58.837891 117.42643 58.837891 96.191406 C 58.837891 74.956091 78.676006 56.412109 104.98242 56.412109 z "
       style="fill:#ffffff;stroke:none" />
  </g>
</svg>
