<?xml version="1.0" encoding="UTF-8" standalone="no"?>
<svg
   xmlns:dc="http://purl.org/dc/elements/1.1/"
   xmlns:cc="http://creativecommons.org/ns#"
   xmlns:rdf="http://www.w3.org/1999/02/22-rdf-syntax-ns#"
   xmlns:svg="http://www.w3.org/2000/svg"
   xmlns="http://www.w3.org/2000/svg"
   width="200mm"
   height="200mm"
   viewBox="0 0 210 297"
   version="1.1"
   id="svg8">
  <metadata
     id="metadata2057">
    <rdf:RDF>
      <cc:Work
         rdf:about="">
        <dc:format>image/svg+xml</dc:format>
        <dc:type
           rdf:resource="http://purl.org/dc/dcmitype/StillImage" />
        <dc:title></dc:title>
      </cc:Work>
    </rdf:RDF>
  </metadata>
  <defs
     id="defs2" />
  <g
     id="layer1">
    <circle
       style="fill:#000000;stroke:#231f20;stroke-width:0.0529167"
       id="path833"
       cx="105"
       cy="148.5"
       r="148.47354" />
    <path
       id="path2620"
       style="font-style:normal;font-variant:normal;font-weight:bold;font-stretch:normal;font-size:285.639px;font-family:'DejaVu Sans';-inkscape-font-specification:'DejaVu Sans Bold';fill:#ffffff;stroke-width:0.264583px"
       d="m 78.09724,183.45822 v -0.13947 q 17.015605,0 28.87074,-11.85514 11.85513,-11.9946 11.85513,-28.87074 0,-16.87613 -11.85513,-28.73126 Q 95.252317,101.867 78.09724,101.867 q -16.876133,0 -28.87074,11.99461 -11.855134,11.85513 -11.855134,28.73126 v 0.27895 H 16.45054 q 0,-25.80235 17.99191,-43.933735 17.99191,-18.131382 43.65479,-18.131382 26.0813,0 44.07321,18.131382 17.99191,18.131385 17.99191,43.933735 0,23.43132 -15.20247,40.5864 h 31.66018 V 48.867576 h 21.0603 V 257.51794 h -21.0603 V 204.51852 H 16.45054 v -21.0603 z" />
  </g>
</svg>
